:SAMPLES-PER-SECOND 30
:FULLY-SPECIFIED
:DEGREES
165
root  4.08908889 36.09377643 10.62033345 0.8950195313 1.98500061 -6.432983398
lowerback  9.592120171 8.130960464 -2.323139906
upperback  4.787409782 10.52149963 -5.037139893
thorax  0.2471279949 5.295119762 -4.878079891
lowerneck  6.805150032 -2.236289978 -8.996330261
upperneck  7.939720154 -4.389800072 19.58180046
head  1.738010049 -2.193909883 7.577390194
lclavicle  0 -9.442270133e-015 7.951389973e-016
lhumerus  4.583849907 -41.27740097 76.66120148
lradius  1.635846972e-031 -3.129352764e-031 117.5979996
lwrist  -7.062250077e-031 -1.765562519e-031 10.20489979
lhand  -1.496451383e-031 -27.76390076 20.11240005
lfingers  90 7.125020027 -90
lthumb  89.89689403 5.08795885 91.16245106
rclavicle  0 -9.442270133e-015 7.951389973e-016
rhumerus  46.27930069 -4.364520073 -43.50180054
rradius  1.998969201e-031 2.910835992e-031 55.52130127
rwrist  3.531125038e-031 -3.531125038e-031 0.3001779914
rhand  -7.920061211e-032 -33.2840004 9.303460121
rfingers  -90 -7.125020027 -90
rthumb  -92.93752616 -24.25625642 -97.11982154
rfemur  10.78359985 -0.6342920065 23.55540085
rtibia  -0 0 48.70800018
rfoot  -0 -21.66040039 -17.11759949
rtoes  5.373923086 19.29304026 -105.8922705
lfemur  -53.8125 -12.59090042 4.411709785
ltibia  -0 0 60.4978981
lfoot  -0 0.4133400023 -15.81309986
ltoes  -4.250644065 -19.5611806 -102.515957
166
root  4.14046678 36.18999992 10.57937802 0.5050048828 0.4049987793 -6.296020508
lowerback  9.12458992 8.259869576 -3.044399977
upperback  5.398970127 10.69369984 -4.751810074
thorax  0.9674069881 5.359189987 -4.09321022
lowerneck  5.259709835 -2.1698699 -8.902830124
upperneck  8.61950016 -4.308949947 19.1352005
head  2.178359985 -2.058020115 7.389200211
lclavicle  0 -9.442270133e-015 7.951389973e-016
lhumerus  5.450920105 -39.78390121 76.18869781
lradius  1.658687694e-031 -3.117306397e-031 118.0169983
lwrist  -1.412450015e-030 -1.765562519e-031 10.14470005
lhand  -1.496451383e-031 -27.76390076 20.11240005
lfingers  90 7.125020027 -90
lthumb  89.89689403 5.08795885 91.16245106
rclavicle  0 -9.442270133e-015 7.951389973e-016
rhumerus  46.00899887 -3.707360029 -44.83069992
rradius  1.886724225e-031 2.984814188e-031 57.70270157
rwrist  3.531125038e-031 -0 0.1210810021
rhand  -7.920061211e-032 -33.2840004 9.303460121
rfingers  -90 -7.125020027 -90
rthumb  -92.93752616 -24.25625642 -97.11982154
rfemur  10.70720005 0.1886260062 22.47520065
rtibia  -0 0 49.11399841
rfoot  -0 -20.43359947 -15.2972002
rtoes  5.373923086 19.29304026 -105.8922705
lfemur  -52.10829926 -12.1814003 4.245570183
ltibia  -0 0 59.85900116
lfoot  -0 -0.595296979 -15.37959957
ltoes  -4.250644065 -19.5611806 -102.515957
167
root  4.17919985 36.40799935 10.5448002 0.1500244141 -1.18800354 -6.237976074
lowerback  8.85531044 8.500069618 -3.248029947
upperback  5.464250088 11.0156002 -4.720499992
thorax  1.155030012 5.51184988 -3.930789948
lowerneck  5.390299797 -2.034759998 -8.483449936
upperneck  8.984760284 -4.15335989 18.98320007
head  2.228800058 -1.963829994 7.271920204
lclavicle  0 -9.442270133e-015 7.951389973e-016
lhumerus  5.195429802 -39.19179916 76.16829681
lradius  1.685990187e-031 -3.102624877e-031 118.5199966
lwrist  0 -1.765562519e-031 9.916359901
lhand  -1.496451383e-031 -27.76390076 20.11240005
lfingers  90 7.125020027 -90
lthumb  89.89689403 5.08795885 91.16245106
rclavicle  0 -9.442270133e-015 7.951389973e-016
rhumerus  44.43849945 -3.003639936 -46.59019852
rradius  1.771238327e-031 3.054760027e-031 59.89360046
rwrist  1.412450015e-030 -3.531125038e-031 0.125485003
rhand  -7.920061211e-032 -33.2840004 9.303460121
rfingers  -90 -7.125020027 -90
rthumb  -92.93752616 -24.25625642 -97.11982154
rfemur  10.65200043 0.8179780245 21.51819992
rtibia  -0 0 49.1371994
rfoot  -0 -19.19420052 -13.62709999
rtoes  5.373923086 19.29304026 -105.8922705
lfemur  -50.58390045 -12.1260004 4.49420023
ltibia  -0 0 58.770401
lfoot  -0 0.4255349934 -14.44449997
ltoes  -4.250644065 -19.5611806 -102.515957
168
root  4.216555723 36.59400039 10.49817754 -0.1170043945 -2.791000366 -6.038024902
lowerback  8.870920181 8.739919662 -3.060080051
upperback  5.015270233 11.3185997 -5.17524004
thorax  0.8225070238 5.677060127 -4.558000088
lowerneck  6.519790173 -1.805019975 -7.740330219
upperneck  9.271809578 -3.894190073 19.28759956
head  2.070839882 -1.850000024 7.264810085
lclavicle  0 -9.442270133e-015 7.951389973e-016
lhumerus  4.197669983 -39.17449951 75.86730194
lradius  1.721132968e-031 -3.083268614e-031 119.1709976
lwrist  -1.412450015e-030 -0 9.828109741
lhand  -1.496451383e-031 -27.76390076 20.11240005
lfingers  90 7.125020027 -90
lthumb  89.89689403 5.08795885 91.16245106
rclavicle  0 -9.442270133e-015 7.951389973e-016
rhumerus  41.81330109 -2.282819986 -49.15250015
rradius  1.646378894e-031 3.123824671e-031 62.20899963
rwrist  3.531125038e-031 3.531125038e-031 0.3651109934
rhand  -7.920061211e-032 -33.2840004 9.303460121
rfingers  -90 -7.125020027 -90
rthumb  -92.93752616 -24.25625642 -97.11982154
rfemur  10.46240044 1.242949963 20.39990044
rtibia  -0 0 49.09949875
rfoot  -0 -18.11450005 -12.27470016
rtoes  5.373923086 19.29304026 -105.8922705
lfemur  -48.74530029 -11.82390022 4.304299831
ltibia  -0 0 57.58610153
lfoot  -0 -0.08897019923 -13.66390038
ltoes  -4.250644065 -19.5611806 -102.515957
169
root  4.243155727 36.79799958 10.44277807 -0.4099731445 -4.479003906 -5.926025391
lowerback  8.657640457 8.926650047 -3.289429903
upperback  4.800730228 11.54599953 -5.227829933
thorax  0.6931890249 5.782720089 -4.495550156
lowerneck  7.366630077 -1.502830029 -7.579160213
upperneck  9.452130318 -3.532779932 19.51429939
head  1.925310016 -1.698420048 7.328829765
lclavicle  0 -9.442270133e-015 7.951389973e-016
lhumerus  3.392210007 -38.57559967 75.8730011
lradius  1.7530585e-031 -3.065229181e-031 119.7659988
lwrist  0 -1.765562519e-031 9.799440384
lhand  -1.496451383e-031 -27.76390076 20.11240005
lfingers  90 7.125020027 -90
lthumb  89.89689403 5.08795885 91.16245106
rclavicle  0 -9.442270133e-015 7.951389973e-016
rhumerus  39.58639908 -1.439110041 -51.19889832
rradius  1.509015113e-031 3.192446934e-031 64.70069885
rwrist  7.062250077e-031 -0 0.3336789906
rhand  -7.920061211e-032 -33.2840004 9.303460121
rfingers  -90 -7.125020027 -90
rthumb  -92.93752616 -24.25625642 -97.11982154
rfemur  10.33360004 1.775699973 19.56270027
rtibia  -0 0 48.83309937
rfoot  -0 -16.86919975 -11.45110035
rtoes  5.373923086 19.29304026 -105.8922705
lfemur  -46.71689987 -11.4538002 4.172440052
ltibia  -0 0 56.18399811
lfoot  -0 -0.609423995 -12.74429989
ltoes  -4.250644065 -19.5611806 -102.515957
170
root  4.258444553 37.06444568 10.37224447 -0.6279907227 -6.274002075 -6.020019531
lowerback  8.616840363 8.924739838 -3.50112009
upperback  4.671500206 11.51490021 -5.185520172
thorax  0.5274829865 5.757249832 -4.348320007
lowerneck  7.477230072 -1.096619964 -7.592579842
upperneck  9.818639755 -3.041059971 19.53840065
head  1.941009998 -1.448690057 7.345240116
lclavicle  0 -9.442270133e-015 7.951389973e-016
lhumerus  2.644550085 -37.42779922 75.73269653
lradius  1.789313073e-031 -3.044208069e-031 120.4459991
lwrist  -7.062250077e-031 -1.765562519e-031 9.480910301
lhand  -1.496451383e-031 -27.76390076 20.11240005
lfingers  90 7.125020027 -90
lthumb  89.89689403 5.08795885 91.16245106
rclavicle  0 -9.442270133e-015 7.951389973e-016
rhumerus  37.87490082 -0.4104569852 -53.27259827
rradius  1.363546781e-031 3.25723567e-031 67.28479767
rwrist  1.412450015e-030 -0 -0.08044029772
rhand  -7.920061211e-032 -33.2840004 9.303460121
rfingers  -90 -7.125020027 -90
rthumb  -92.93752616 -24.25625642 -97.11982154
rfemur  10.11950016 2.47420001 19.14789963
rtibia  -0 0 48.43470001
rfoot  -0 -15.41790009 -10.97130013
rtoes  5.373923086 19.29304026 -105.8922705
lfemur  -44.8132019 -11.11680031 4.422470093
ltibia  -0 0 54.65729904
lfoot  -0 -0.3045380116 -11.56089973
ltoes  -4.250644065 -19.5611806 -102.515957
171
root  4.272177839 37.36355699 10.292889 -0.7340087891 -7.960006714 -6.101989746
lowerback  8.264120102 8.995420456 -3.546319962
upperback  4.595689774 11.62469959 -5.220300198
thorax  0.6430799961 5.809470177 -4.315090179
lowerneck  7.852890015 -0.822329998 -7.246409893
upperneck  10.00580025 -2.68069005 19.47229958
head  1.876639962 -1.273360014 7.267429829
lclavicle  0 -9.442270133e-015 7.951389973e-016
lhumerus  1.877810001 -36.74710083 75.67220306
lradius  1.838277108e-031 -3.014893251e-031 121.3720016
lwrist  -1.412450015e-030 1.765562519e-031 8.76336956
lhand  -1.496451383e-031 -27.76390076 20.11240005
lfingers  90 7.125020027 -90
lthumb  89.89689403 5.08795885 91.16245106
rclavicle  0 -9.442270133e-015 7.951389973e-016
rhumerus  35.70999908 0.2202199996 -55.2140007
rradius  1.201934336e-031 3.320270755e-031 70.09980011
rwrist  1.059337512e-030 -0 -0.721010983
rhand  -7.920061211e-032 -33.2840004 9.303460121
rfingers  -90 -7.125020027 -90
rthumb  -92.93752616 -24.25625642 -97.11982154
rfemur  9.846409798 3.064909935 18.79000092
rtibia  -0 0 47.89699936
rfoot  -0 -14.14540005 -10.7258997
rtoes  5.373923086 19.29304026 -105.8922705
lfemur  -43.06129837 -10.96020031 4.703179836
ltibia  -0 0 53.03630066
lfoot  -0 0.1085200012 -10.15750027
ltoes  -4.250644065 -19.5611806 -102.515957
